<?xml version="1.0" encoding="UTF-8" standalone="no"?>
<!DOCTYPE svg PUBLIC "-//W3C//DTD SVG 1.1//EN" "http://www.w3.org/Graphics/SVG/1.1/DTD/svg11.dtd">
<!-- Created with Inkscape (http://www.inkscape.org/) by Marsupilami -->
<svg
   xmlns:svg="http://www.w3.org/2000/svg"
   xmlns="http://www.w3.org/2000/svg"
   id="svg752"
   version="1.1"
   width="1037.7751"
   height="164.97145">
  <defs
     id="defs749" />
  <path
     style="opacity:1;vector-effect:none;fill:#f36d21;fill-opacity:1;stroke-width:7.4437995;stroke-linecap:butt;stroke-linejoin:miter;stroke-miterlimit:4;stroke-dasharray:none;stroke-dashoffset:0;stroke-opacity:1"
     d="m 1018.8876,141.29927 a 54.786363,54.786363 0 0 1 -20.09826,4.61516 c -11.38901,0 -19.57719,-6.40167 -19.57719,-21.88477 V 67.382346 H 962.98467 V 56.067771 h 15.85529 v -23.74572 h 14.8876 v 23.74572 h 23.00134 v 11.612327 h -23.00134 v 52.106592 c 0,9.90025 2.53089,13.77103 9.30474,13.77103 a 42.131904,42.131904 0 0 0 14.8876,-4.09409 z m -61.56022,-3.34971 a 50.841149,50.841149 0 0 1 -29.03082,8.11374 c -22.3314,0 -38.93107,-16.22748 -38.93107,-46.821496 0,-31.933896 21.66146,-45.481611 39.30326,-45.481611 16.07861,0 27.31875,4.09409 28.65863,15.706417 0,1.712073 0,4.242965 0,6.401667 h -13.69659 c 0,-7.443799 -4.09409,-9.304749 -14.14322,-9.304749 a 21.363704,21.363704 0 0 0 -10.04913,1.563198 c -1.5632,0.967694 -13.77103,6.997171 -13.77103,30.594012 0,23.596842 14.14322,34.613662 26.72324,34.613662 a 43.992854,43.992854 0 0 0 23.82016,-8.93255 z M 817.38395,97.753044 v 2.977516 c 0,20.91708 10.27245,32.30609 28.65863,32.30609 a 47.417002,47.417002 0 0 0 27.6165,-9.15587 l 1.191,13.54771 a 59.103767,59.103767 0 0 1 -33.42266,7.96487 c -22.33139,0 -39.45213,-17.0463 -39.45213,-45.853804 0,-30.221822 16.45079,-46.449305 39.07994,-46.449305 26.87212,0 35.20918,13.919905 35.20918,44.662793 z M 862.71669,85.842965 C 862.12119,68.796668 854.60295,65.74471 840.38529,65.74471 a 28.137561,28.137561 0 0 0 -11.61232,2.679768 27.542057,27.542057 0 0 0 -9.82582,17.418487 z m -67.36638,-16.153041 -12.20783,3.498585 c 0,-1.339884 -0.59551,-7.443799 -6.17836,-7.443799 -8.48593,0 -15.4831,14.143216 -18.6095,21.661453 V 143.16022 H 743.46703 V 79.73905 a 139.79455,139.79455 0 0 0 -0.74438,-17.046298 l -0.81882,-6.624981 h 13.77103 l 2.53089,13.919905 a 23.969034,23.969034 0 0 1 19.94938,-16.078607 14.887599,14.887599 0 0 1 16.82299,12.803335 c 0,1.339884 0.37219,2.158702 0.37219,2.307578 z M 708.85336,40.435792 a 10.793509,10.793509 0 0 1 -9.67694,-10.867947 9.8258151,9.8258151 0 1 1 19.57719,0 11.165699,11.165699 0 0 1 -9.90025,10.867947 z M 701.484,56.067771 h 14.8876 V 143.45797 H 701.484 Z M 622.1331,143.45797 H 582.08546 V 26.292574 h 41.83415 c 41.23865,0 55.53074,31.338395 55.53074,58.061631 0,25.755545 -14.73872,59.103765 -57.31725,59.103765 z M 621.38872,39.244784 h -24.04348 v 91.782046 h 22.3314 c 29.7752,0 42.80185,-17.19518 42.80185,-46.449311 -0.29775,-19.949379 -9.6025,-45.630486 -41.08977,-45.630486 z m -121.78056,58.50826 v 2.977516 c 0,20.91708 10.27244,32.30609 28.65863,32.30609 a 47.417002,47.417002 0 0 0 27.46762,-9.08143 l 1.191,13.54771 a 59.103767,59.103767 0 0 1 -33.1249,7.89043 c -22.3314,0 -39.45214,-17.0463 -39.45214,-45.853804 0,-30.221822 16.4508,-46.449305 39.07995,-46.449305 26.87211,0 35.20917,13.919905 35.20917,44.662793 z M 544.9409,85.842965 C 544.34539,68.796668 536.82716,65.74471 522.6095,65.74471 a 28.137561,28.137561 0 0 0 -11.61233,2.679768 27.542057,27.542057 0 0 0 -9.52806,17.418487 z m -69.52509,52.106595 a 50.841149,50.841149 0 0 1 -29.03082,7.4438 c -22.33139,0 -38.93107,-16.22748 -38.93107,-46.821498 0,-31.933896 21.66146,-45.481611 39.30326,-45.481611 16.07861,0 27.31875,4.09409 28.65863,15.706417 0,1.712074 0,4.242965 0,6.401667 h -13.69659 c 0,-7.443799 -4.09409,-9.304749 -14.14322,-9.304749 a 21.363704,21.363704 0 0 0 -10.04913,1.563198 c -1.56319,0.967694 -13.77103,6.997171 -13.77103,30.594012 0,23.596844 14.14322,34.613664 26.72324,34.613664 a 43.992854,43.992854 0 0 0 23.82016,-8.93256 z m -87.83683,5.50841 h -14.8876 c 0,0 0.74438,-20.32157 0.5955,-37.96338 0,0 0,-11.612322 0,-18.609493 -0.37219,-13.324398 -1.56319,-20.098255 -14.88759,-20.098255 a 36.251303,36.251303 0 0 0 -12.20783,2.307578 90.14441,90.14441 0 0 0 -14.51541,15.483099 v 58.806011 h -14.8876 V 80.11124 a 144.93077,144.93077 0 0 0 -0.74438,-17.418488 l -1.04213,-6.624981 h 13.77103 l 2.30757,12.952211 a 35.060295,35.060295 0 0 1 28.43532,-15.259789 c 15.70641,0 26.35105,5.061784 27.83981,23.00134 0.74438,8.709242 0.5955,17.418487 0.5955,26.127737 0,14.21765 -0.37219,40.5687 -0.37219,40.5687 z M 237.58642,97.753044 v 2.977516 c 0,20.91708 10.27245,32.30609 28.65863,32.30609 a 47.417002,47.417002 0 0 0 27.46762,-9.08143 l 1.19101,13.54771 a 59.103767,59.103767 0 0 1 -33.34822,7.89043 c -22.3314,0 -39.45214,-17.0463 -39.45214,-45.853804 0,-30.221822 16.4508,-46.449305 39.07995,-46.449305 26.87211,0 35.20917,13.919905 35.20917,44.662793 z m 45.2583,-11.910079 C 282.24922,68.796668 274.73098,65.74471 260.51333,65.74471 a 28.137561,28.137561 0 0 0 -12.1334,2.97752 27.542057,27.542057 0 0 0 -9.23031,17.120735 z M 194.41239,40.435792 a 10.793509,10.793509 0 0 1 -9.67694,-10.867947 9.8258151,9.8258151 0 1 1 19.57719,0 11.165699,11.165699 0 0 1 -9.90025,10.867947 z m -7.36936,15.631979 h 14.8876 v 87.390199 h -14.8876 z m -15.63198,81.881789 a 50.841149,50.841149 0 0 1 -29.03082,7.4438 c -22.3314,0 -38.93107,-16.22748 -38.93107,-46.821498 0,-31.933896 21.66146,-45.481611 39.30326,-45.481611 16.07861,0 27.31874,4.09409 28.65863,15.706417 0,1.712074 0,4.242965 0,6.401667 h -13.77103 c 0,-7.443799 -4.09409,-9.304749 -14.14322,-9.304749 a 21.363704,21.363704 0 0 0 -10.04913,1.563198 c -1.5632,0.967694 -13.77103,6.997171 -13.77103,30.594012 0,23.596844 14.14322,34.613664 26.72324,34.613664 a 43.992854,43.992854 0 0 0 23.82016,-8.93256 z m -122.30162,7.4438 A 72.874795,72.874795 0 0 1 18.8876,139.21501 l 2.1587,-15.48311 a 53.372041,53.372041 0 0 0 27.69094,8.11374 c 15.85529,0 22.33139,-9.08143 22.33139,-17.79068 0.29776,-21.884765 -51.21334,-25.011161 -51.21334,-57.987189 0,-17.641804 11.61233,-31.933899 38.70776,-31.933899 a 67.88745,67.88745 0 0 1 28.06312,5.582849 L 85.88179,45.199824 A 56.423999,56.423999 0 0 0 58.56305,37.756025 c -16.67411,0 -21.66146,9.081435 -21.66146,17.79068 0,22.331398 51.5111,26.872113 51.5111,58.061635 -0.0744,17.6418 -14.36654,31.78502 -39.30326,31.78502 z"
     id="path714" />
</svg>
